<?xml version="1.0" encoding="UTF-8" standalone="no"?>
<svg
   xmlns:dc="http://purl.org/dc/elements/1.1/"
   xmlns:cc="http://creativecommons.org/ns#"
   xmlns:rdf="http://www.w3.org/1999/02/22-rdf-syntax-ns#"
   xmlns:svg="http://www.w3.org/2000/svg"
   xmlns="http://www.w3.org/2000/svg"
   xmlns:xlink="http://www.w3.org/1999/xlink"
   id="svg8"
   version="1.1"
   viewBox="0 0 338.66666 190.50001"
   height="720"
   width="1280">
  <defs
     id="defs2">
    <linearGradient
       id="linearGradient1070">
      <stop
         style="stop-color:#0090ff;stop-opacity:0.2"
         offset="0"
         id="stop1066" />
      <stop
         style="stop-color:#9d84ff;stop-opacity:0"
         offset="1"
         id="stop1068" />
    </linearGradient>
    <linearGradient
       id="linearGradient992">
      <stop
         id="stop988"
         offset="0"
         style="stop-color:#21355f;stop-opacity:1" />
      <stop
         id="stop990"
         offset="1"
         style="stop-color:#22213e;stop-opacity:1" />
    </linearGradient>
    <linearGradient
       id="linearGradient964">
      <stop
         id="stop960"
         offset="0"
         style="stop-color:#5f7a96;stop-opacity:0.62352943" />
      <stop
         id="stop962"
         offset="1"
         style="stop-color:#607b98;stop-opacity:0" />
    </linearGradient>
    <radialGradient
       gradientUnits="userSpaceOnUse"
       gradientTransform="matrix(-1.0359283,0.61388334,-0.39999991,-0.67499998,452.0816,271.73786)"
       r="169.33334"
       fy="238.44785"
       fx="148.17867"
       cy="238.44785"
       cx="148.17867"
       id="radialGradient968"
       xlink:href="#linearGradient964" />
    <radialGradient
       gradientUnits="userSpaceOnUse"
       gradientTransform="matrix(1.0601981,0.5281631,-0.71805903,1.4413823,75.341947,-246.76226)"
       r="169.33333"
       fy="157.6275"
       fx="249.68639"
       cy="157.6275"
       cx="249.68639"
       id="radialGradient994"
       xlink:href="#linearGradient992" />
    <linearGradient
       gradientTransform="matrix(1.0009627,0,0,1,-0.32603839,0)"
       gradientUnits="userSpaceOnUse"
       y2="310.49371"
       x2="193.41042"
       y1="220.79997"
       x1="101.6"
       id="linearGradient1064"
       xlink:href="#linearGradient1070" />
  </defs>
  <metadata
     id="metadata5">
    <rdf:RDF>
      <cc:Work
         rdf:about="">
        <dc:format>image/svg+xml</dc:format>
        <dc:type
           rdf:resource="http://purl.org/dc/dcmitype/StillImage" />
        <dc:title></dc:title>
      </cc:Work>
    </rdf:RDF>
  </metadata>
  <g
     transform="translate(0,-106.49998)"
     id="layer1">
    <rect
       y="106.49998"
       x="0"
       height="190.5"
       width="338.66666"
       id="rect108"
       style="fill:url(#radialGradient994);stroke-width:0.26458332;fill-opacity:1" />
    <path
       id="rect52"
       d="m 145.52084,106.49998 c 0.19721,0.46199 0.41519,0.91521 0.60616,1.37976 0.67928,1.65241 1.31917,3.32088 1.91926,5.00331 0.60009,1.68244 1.16039,3.37888 1.68104,5.08755 0.52065,1.70867 1.00133,3.42928 1.44229,5.16041 0.44095,1.73113 0.84203,3.47262 1.20303,5.22242 0.361,1.7498 0.68193,3.50785 0.96273,5.27254 0.2808,1.76468 0.52157,3.53604 0.72192,5.31182 0.20034,1.77579 0.36044,3.55611 0.48007,5.33921 0.11963,1.7831 0.19905,3.56912 0.23771,5.35575 0.0387,1.78663 0.0367,3.57401 -0.006,5.36039 -0.0426,1.78637 -0.12608,3.57186 -0.25012,5.3542 -0.12401,1.78234 -0.28879,3.56159 -0.49454,5.33611 -0.20575,1.77452 -0.45226,3.54426 -0.74,5.30717 -0.28773,1.76291 -0.61654,3.51882 -0.98651,5.26634 -0.36997,1.74752 -0.78105,3.48633 -1.23352,5.21467 -0.45244,1.72834 -0.94636,3.44624 -1.48156,5.15162 -0.77014,2.45401 -1.62133,4.87868 -2.54868,7.27243 -0.92735,2.39375 -1.93066,4.7568 -3.00447,7.08794 -1.0738,2.33114 -2.21816,4.63004 -3.42769,6.89622 -1.20952,2.26618 -2.48439,4.49944 -3.81889,6.6983 -1.3345,2.19886 -2.72879,4.36344 -4.17752,6.49263 -1.44872,2.12917 -2.95192,4.22307 -4.50412,6.28023 -1.55219,2.05717 -3.15323,4.07783 -4.79816,6.06061 -1.64493,1.98279 -3.33375,3.92771 -5.06067,5.83375 -1.72691,1.90607 -3.49178,3.77479 -5.29115,5.60897 -1.79938,1.83417 -3.63344,3.63358 -5.49838,5.4007 -1.86493,1.76712 -3.76083,3.50203 -5.68441,5.20692 -1.923587,1.70489 -3.874435,3.38011 -5.849765,5.0276 -1.97532,1.64748 -3.97483,3.26733 -5.99499,4.86223 -2.02016,1.59491 -4.06143,3.1647 -6.11952,4.71186 -2.05809,1.54716 -4.13325,3.07172 -6.22236,4.57595 -2.08911,1.50423 -4.19181,2.98786 -6.30504,4.45399 -2.47765,1.71896 -4.971151,3.41522 -7.480161,5.08806 -2.50902,1.67285 -5.033671,3.32236 -7.573182,4.94854 -2.53951,1.62617 -5.093967,3.22902 -7.663098,4.80797 -1.686139,1.03628 -3.388439,2.04609 -5.087027,3.06183 h 3.312269 c 0.03913,-0.0143 0.0787,-0.0275 0.117821,-0.0419 2.289683,-0.84069 4.570532,-1.70613 6.841443,-2.59622 2.270913,-0.89009 4.5319,-1.80508 6.783049,-2.74402 2.251149,-0.93895 4.492188,-1.90197 6.722586,-2.88923 2.2304,-0.98726 4.45037,-1.99838 6.65902,-3.03341 2.20866,-1.03502 4.40593,-2.09379 6.59185,-3.17603 2.18592,-1.08224 4.3604,-2.18819 6.5226,-3.31711 2.1622,-1.12892 4.31226,-2.28107 6.44974,-3.45612 2.13748,-1.17505 4.26251,-2.37294 6.374278,-3.59358 2.111777,-1.22064 4.210147,-2.4638 6.295227,-3.72949 2.08507,-1.26568 4.15671,-2.55418 6.2141,-3.86436 2.05739,-1.31019 4.10063,-2.64252 6.12934,-3.99666 2.02871,-1.35413 4.04297,-2.72985 6.04201,-4.12739 1.99904,-1.39755 3.98268,-2.8167 5.95106,-4.25711 1.96838,-1.44041 3.92131,-2.90201 5.85804,-4.38474 1.93672,-1.48273 3.85731,-2.98685 5.7614,-4.51135 2.91021,-2.33007 5.7808,-4.70883 8.61084,-7.13497 2.83005,-2.42613 5.61943,-4.89918 8.36693,-7.41815 2.74751,-2.51897 5.4532,-5.08348 8.11579,-7.69204 2.66258,-2.60855 5.28211,-5.26121 7.8574,-7.9561 2.57529,-2.6949 5.10668,-5.43236 7.5923,-8.21035 2.48562,-2.778 4.92536,-5.59642 7.31893,-8.45427 2.39358,-2.85785 4.74073,-5.75493 7.03988,-8.68939 2.29916,-2.93446 4.55072,-5.90636 6.75308,-8.91418 2.20236,-3.00783 4.35533,-6.05173 6.45852,-9.12968 2.10319,-3.07795 4.15664,-6.19001 6.15828,-9.33483 2.00164,-3.14483 3.95154,-6.32222 5.84925,-9.53069 1.89773,-3.20846 3.74313,-6.44787 5.53455,-9.71672 1.79143,-3.26884 3.52882,-6.56745 5.21157,-9.89345 1.68275,-3.32599 3.31069,-6.67944 4.88239,-10.05933 1.5717,-3.3799 3.08718,-6.78588 4.54546,-10.21643 0.62344,-1.46664 1.19386,-2.95527 1.79626,-4.43074 z"
       style="fill:#618fc6;stroke-width:0.26458332;fill-opacity:0.58636361;opacity:0.59" />
    <path
       id="path66"
       d="M 33.716804,106.49998 H 0 v 190.5 H 338.66667 V 107.23017 c -2.08307,2.14599 -4.1664,4.29185 -6.29108,6.39651 -2.82877,2.80208 -5.69421,5.56707 -8.59483,8.29458 -2.90066,2.72751 -5.83637,5.41733 -8.80671,8.06876 -2.97032,2.65143 -5.97503,5.26442 -9.01287,7.83828 -3.03784,2.57386 -6.10921,5.10887 -9.21237,7.60367 -3.10317,2.4948 -6.23827,4.94965 -9.40459,7.36389 -3.16632,2.41424 -6.36336,4.78779 -9.59064,7.11998 -3.22726,2.33219 -6.48491,4.62277 -9.77096,6.87141 -3.28604,2.24865 -6.60095,4.45512 -9.94359,6.61872 -3.34264,2.1636 -6.71294,4.28431 -10.10998,6.36137 -3.39704,2.07706 -6.82039,4.11034 -10.26966,6.09937 -3.44926,1.98903 -6.92434,3.93373 -10.42365,5.83324 -3.4993,1.8995 -7.02325,3.75396 -10.57041,5.56245 -3.54716,1.80848 -7.11763,3.57104 -10.71046,5.28701 -3.59283,1.71598 -7.20798,3.38549 -10.8443,5.00745 -3.63631,1.62196 -7.2938,3.19677 -10.97142,4.72323 -3.41861,1.41895 -6.85792,2.79754 -10.32133,4.11292 -3.46342,1.31539 -6.95081,2.56755 -10.46448,3.73207 -1.75684,0.58227 -3.52021,1.14226 -5.29064,1.67794 -1.77042,0.53567 -3.5478,1.04696 -5.33249,1.53014 -1.78468,0.48317 -3.57678,0.93846 -5.37641,1.36322 -1.79963,0.42477 -3.60664,0.81882 -5.42189,1.17926 -1.81526,0.36044 -3.63957,0.68679 -5.47047,0.97565 -1.8309,0.28886 -3.66881,0.54043 -5.51078,0.75189 -1.84196,0.21147 -3.68815,0.38283 -5.53661,0.51108 -1.84845,0.12825 -3.69916,0.21348 -5.54953,0.2527 -1.85037,0.0392 -3.70027,0.0324 -5.54798,-0.0233 -1.84771,-0.0556 -3.69304,-0.16046 -5.53351,-0.31677 -1.84048,-0.15632 -3.67591,-0.36403 -5.50458,-0.62684 -1.82866,-0.26281 -3.650438,-0.58038 -5.462715,-0.9555 -1.659572,-0.3435 -3.307754,-0.73754 -4.941818,-1.18028 -1.634062,-0.44275 -3.253854,-0.93417 -4.858102,-1.47278 -1.604248,-0.53862 -3.192891,-1.12433 -4.763016,-1.75545 -1.570125,-0.63112 -3.121769,-1.30805 -4.653463,-2.0283 -1.531694,-0.72026 -3.043068,-1.48428 -4.532024,-2.2903 -1.488953,-0.80602 -2.955755,-1.65405 -4.397663,-2.54248 -1.441908,-0.88843 -2.859315,-1.81686 -4.24987,-2.78433 -1.390555,-0.96746 -2.754265,-1.97373 -4.089156,-3.01687 -1.334892,-1.04313 -2.640603,-2.12312 -3.915524,-3.23856 -1.274919,-1.11544 -2.518844,-2.26657 -3.729487,-3.45095 -1.210644,-1.18438 -2.387963,-2.40203 -3.530018,-3.65197 -1.142056,-1.24995 -2.248982,-2.53206 -3.318142,-3.84421 -1.069163,-1.31216 -2.100877,-2.65461 -3.092837,-4.0256 -0.991957,-1.37099 -1.944155,-2.77069 -2.854605,-4.19716 -0.910447,-1.42646 -1.778828,-2.87982 -2.603458,-4.35839 -0.824629,-1.47857 -1.605404,-2.98197 -2.339908,-4.50928 -0.734505,-1.52731 -1.421728,-3.07636 -2.06189,-4.64365 -0.640162,-1.56728 -1.23334,-3.15295 -1.77922,-4.75475 -0.545881,-1.60179 -1.044893,-3.21952 -1.49655,-4.85035 -0.451657,-1.63083 -0.855866,-3.27449 -1.213363,-4.92889 -0.357494,-1.65441 -0.667816,-3.31944 -0.931209,-4.99195 -0.263393,-1.67251 -0.480221,-3.35278 -0.649573,-5.03793 -0.169349,-1.68515 -0.291534,-3.37507 -0.366903,-5.06739 -0.07537,-1.69232 -0.10382,-3.38681 -0.08526,-5.08083 0.01855,-1.69403 0.08395,-3.38798 0.196371,-5.07824 0.112417,-1.69027 0.271786,-3.37706 0.478007,-5.05809 0.206219,-1.68104 0.459679,-3.3561 0.759643,-5.02244 0.299963,-1.66633 0.646602,-3.32406 1.040246,-4.97023 0.393647,-1.64618 0.834096,-3.28097 1.321366,-4.90151 0.48727,-1.62055 1.021139,-3.2268 1.60197,-4.81625 0.295061,-0.80743 0.637337,-1.59686 0.95653,-2.3952 z"
       style="fill:url(#radialGradient968);stroke-width:0.26458332;fill-opacity:1" />
    <path
       id="path1034"
       d="M 46.883419,296.99998 H 338.66667 V 107.23017 c -2.08507,2.14599 -4.17043,4.29185 -6.29713,6.39651 -2.83152,2.80208 -5.69969,5.56707 -8.6031,8.29458 -2.90345,2.72751 -5.84199,5.41733 -8.81519,8.06876 -2.97318,2.65143 -5.98079,5.26442 -9.02156,7.83828 -3.04076,2.57386 -6.11508,5.10887 -9.22122,7.60367 -3.10617,2.4948 -6.24429,4.94965 -9.41366,7.36389 -3.16936,2.41424 -6.36948,4.78779 -9.59987,7.11998 -3.23037,2.33219 -6.49115,4.62278 -9.78036,6.87141 -3.28922,2.24865 -6.60731,4.45512 -9.95317,6.61872 -3.34586,2.1636 -6.7194,4.28431 -10.1197,6.36137 -3.40032,2.07706 -6.82696,4.11034 -10.27956,6.09937 -3.45257,1.98903 -6.93101,3.93372 -10.43369,5.83323 -3.50266,1.89951 -7.03001,3.75396 -10.58058,5.56246 -3.55058,1.80848 -7.12448,3.57104 -10.72077,5.28701 -3.59629,1.71598 -7.21492,3.38549 -10.85474,5.00745 -3.63981,1.62196 -7.30082,3.19676 -10.98199,4.72322 -3.4219,1.41895 -6.86453,2.79755 -10.33126,4.11293 -0.94794,0.35968 -1.91251,0.67089 -2.86409,1.02061 -1.22645,1.23774 -2.42996,2.49835 -3.67514,3.71709 -2.66621,2.60958 -5.37547,5.17517 -8.1267,7.69513 -2.75123,2.51997 -5.54369,4.99314 -8.37757,7.42022 -2.8339,2.4271 -5.70911,4.80759 -8.62328,7.13859 -1.90666,1.52508 -3.82966,3.03009 -5.76902,4.51341 -1.93936,1.48331 -3.89418,2.94378 -5.86523,4.38475 -1.97103,1.44097 -3.95711,2.86159 -5.95885,4.25969 -2.00175,1.39809 -4.01949,2.77429 -6.05093,4.12894 -2.03145,1.35467 -4.07817,2.68751 -6.13835,3.99821 -2.06016,1.31069 -4.13321,2.59922 -6.22111,3.8654 -2.08789,1.26618 -4.19027,2.51095 -6.304895,3.73207 -2.114624,1.22111 -4.242651,2.41859 -6.383009,3.5941 -2.140369,1.17549 -4.292379,2.32779 -6.457501,3.45715 -2.165112,1.12936 -4.342587,2.23755 -6.531462,3.32021 -2.188875,1.08266 -4.388611,2.1401 -6.600258,3.17552 -2.211647,1.03544 -4.435136,2.04783 -6.668543,3.03547 -2.233424,0.98765 -4.478493,1.95095 -6.732681,2.89026 -2.254179,0.9393 -4.518164,1.85409 -6.792164,2.74454 -2.202554,0.86246 -4.414728,1.69948 -6.634918,2.51561 z"
       style="fill:url(#linearGradient1064);fill-opacity:1;stroke-width:0.26471063" />
  </g>
</svg>
