<?xml version="1.0" encoding="UTF-8" standalone="no"?>
<svg
   xmlns:dc="http://purl.org/dc/elements/1.1/"
   xmlns:cc="http://creativecommons.org/ns#"
   xmlns:rdf="http://www.w3.org/1999/02/22-rdf-syntax-ns#"
   xmlns:svg="http://www.w3.org/2000/svg"
   xmlns="http://www.w3.org/2000/svg"
   xmlns:xlink="http://www.w3.org/1999/xlink"
   xmlns:sodipodi="http://sodipodi.sourceforge.net/DTD/sodipodi-0.dtd"
   xmlns:inkscape="http://www.inkscape.org/namespaces/inkscape"
   inkscape:version="1.0 (4035a4f, 2020-05-01)"
   sodipodi:docname="waves.svg"
   width="1280"
   height="720"
   viewBox="0 0 338.66667 190.5"
   version="1.1"
   id="svg8">
  <sodipodi:namedview
     lock-margins="false"
     inkscape:current-layer="svg8"
     inkscape:window-maximized="1"
     inkscape:window-y="22"
     inkscape:window-x="0"
     inkscape:cy="447.85456"
     inkscape:cx="640.15417"
     inkscape:zoom="1.04375"
     inkscape:pagecheckerboard="true"
     showgrid="false"
     id="namedview870"
     inkscape:window-height="960"
     inkscape:window-width="1920"
     inkscape:pageshadow="2"
     inkscape:pageopacity="0"
     guidetolerance="10"
     gridtolerance="10"
     objecttolerance="10"
     borderopacity="1"
     bordercolor="#666666"
     pagecolor="#ffffff" />
  <defs
     id="defs2">
    <linearGradient
       id="linearGradient928">
      <stop
         style="stop-color:#0e1a31;stop-opacity:1"
         offset="0"
         id="stop924" />
      <stop
         style="stop-color:#20355d;stop-opacity:1"
         offset="1"
         id="stop926" />
    </linearGradient>
    <linearGradient
       id="linearGradient920">
      <stop
         id="stop916"
         offset="0"
         style="stop-color:#0b2c68;stop-opacity:1" />
      <stop
         id="stop918"
         offset="1"
         style="stop-color:#395ea5;stop-opacity:1" />
    </linearGradient>
    <linearGradient
       id="linearGradient1136">
      <stop
         style="stop-color:#38599c;stop-opacity:1"
         offset="0"
         id="stop1132" />
      <stop
         style="stop-color:#183272;stop-opacity:1"
         offset="1"
         id="stop1134" />
    </linearGradient>
    <linearGradient
       id="linearGradient1126">
      <stop
         style="stop-color:#38599c;stop-opacity:1"
         offset="0"
         id="stop1122" />
      <stop
         style="stop-color:#183272;stop-opacity:1"
         offset="1"
         id="stop1124" />
    </linearGradient>
    <linearGradient
       id="linearGradient957">
      <stop
         style="stop-color:#1c4eac;stop-opacity:1;"
         offset="0"
         id="stop953" />
      <stop
         style="stop-color:#3570de;stop-opacity:1"
         offset="1"
         id="stop955" />
    </linearGradient>
    <linearGradient
       xlink:href="#linearGradient957"
       id="linearGradient959"
       x1="101.6"
       y1="190.5"
       x2="304.79999"
       y2="114.3"
       gradientUnits="userSpaceOnUse" />
    <linearGradient
       gradientTransform="scale(0.26458333)"
       xlink:href="#linearGradient1126"
       id="linearGradient1128"
       x1="36.609268"
       y1="336.63998"
       x2="1336.6941"
       y2="756.50482"
       gradientUnits="userSpaceOnUse" />
    <linearGradient
       gradientTransform="scale(0.26458333)"
       xlink:href="#linearGradient1136"
       id="linearGradient1138"
       x1="36.609268"
       y1="336.63998"
       x2="1336.6941"
       y2="756.50482"
       gradientUnits="userSpaceOnUse" />
    <linearGradient
       xlink:href="#linearGradient920"
       id="linearGradient86"
       gradientUnits="userSpaceOnUse"
       x1="67.733345"
       y1="76.200005"
       x2="338.66672"
       y2="152.40001" />
    <linearGradient
       xlink:href="#linearGradient928"
       id="linearGradient930"
       x1="244.90129"
       y1="14.177312"
       x2="244.97018"
       y2="92.164192"
       gradientUnits="userSpaceOnUse" />
    <filter
       style="color-interpolation-filters:sRGB"
       id="filter938"
       x="-0.02690823"
       width="1.0538165"
       y="-0.11105312"
       height="1.2221062">
      <feGaussianBlur
         stdDeviation="3.7989262"
         id="feGaussianBlur940" />
    </filter>
    <filter
       style="color-interpolation-filters:sRGB"
       id="filter944"
       x="-0.02925184"
       width="1.0585037"
       y="-0.083457349"
       height="1.1669147">
      <feGaussianBlur
         stdDeviation="15.600981"
         id="feGaussianBlur946" />
    </filter>
    <filter
       style="color-interpolation-filters:sRGB"
       id="filter950"
       x="-0.025840076"
       width="1.0516802"
       y="-0.13389615"
       height="1.2677923">
      <feGaussianBlur
         stdDeviation="13.781374"
         id="feGaussianBlur952" />
    </filter>
    <linearGradient
       y2="756.50482"
       x2="1336.6941"
       y1="336.63998"
       x1="36.609268"
       gradientUnits="userSpaceOnUse"
       id="linearGradient872"
       xlink:href="#linearGradient1126"
       inkscape:collect="always" />
  </defs>
  <metadata
     id="metadata5">
    <rdf:RDF>
      <cc:Work
         rdf:about="">
        <dc:format>image/svg+xml</dc:format>
        <dc:type
           rdf:resource="http://purl.org/dc/dcmitype/StillImage" />
        <dc:title></dc:title>
      </cc:Work>
    </rdf:RDF>
  </metadata>
  <path
     id="path948"
     style="fill:#000000;fill-opacity:0.564516;stroke:none;stroke-width:0.999999;filter:url(#filter950)"
     d="m 726.20117,309.50586 c -4.14203,-0.0147 -8.28561,-0.004 -12.43164,0.0332 C 478.38906,311.65805 236.67468,396.94025 0,489.78906 v 63.0625 L 905.57227,555.44727 1280,556.52148 V 519.13086 C 1222.2809,469.16959 1163.4453,429.52585 1103.709,398.77148 981.05706,335.62597 854.60415,309.96236 726.20117,309.50586 Z"
     transform="scale(0.26458333)" />
  <path
     d="m 192.14072,81.890091 c -1.09591,-0.0039 -2.19223,-0.0011 -3.2892,0.0088 C 126.57377,82.459525 62.620175,105.02377 0,129.59002 v 16.68529 l 239.59933,0.68678 99.06733,0.28422 v -9.89294 C 323.39515,124.13445 307.82823,113.64538 292.023,105.50829 259.57134,88.801037 226.11401,82.010873 192.14072,81.890091 Z"
     style="fill:url(#linearGradient86);fill-opacity:1;stroke:none;stroke-width:0.264583"
     id="path1101" />
  <path
     id="path942"
     style="fill:#000000;fill-opacity:0.41129;stroke:url(#linearGradient872);stroke-width:0.999999;stroke-opacity:1;filter:url(#filter944)"
     d="m 1280,409.51758 c -2.5226,2.60306 -5.0078,5.24312 -7.5859,7.79101 -4.5799,4.52621 -9.2451,8.96415 -13.9942,13.3125 -4.749,4.34836 -9.5817,8.60581 -14.4922,12.77149 -4.9104,4.16568 -9.8988,8.2386 -14.9629,12.2168 -5.064,3.97819 -10.2042,7.86254 -15.414,11.64843 -5.2098,3.78589 -10.4901,7.47373 -15.8379,11.0625 -5.3479,3.58878 -10.7622,7.078 -16.2402,10.46485 -5.4781,3.38684 -11.0206,6.67146 -16.6211,9.85156 -5.6005,3.1801 -11.2595,6.25607 -16.9746,9.22461 -5.7152,2.96854 -11.4866,5.82987 -17.3086,8.58203 -5.8221,2.75216 -11.6942,5.39481 -17.6153,7.92578 -5.9211,2.53098 -11.8899,4.95089 -17.9023,7.25586 -6.0124,2.30497 -12.0682,4.49421 -18.1641,6.56836 -6.0959,2.07415 -12.2327,4.03257 -18.4043,5.87109 -6.1716,1.83852 -12.3796,3.55818 -18.6191,5.15625 -6.2396,1.59808 -12.5091,3.07511 -18.8047,4.42969 -6.2956,1.35458 -12.6166,2.58571 -18.959,3.69727 -6.34243,1.11156 -12.70576,2.10168 -19.08593,2.9707 -6.38017,0.86902 -12.77678,1.61718 -19.18555,2.24414 -6.40876,0.62696 -12.8296,1.13416 -19.25781,1.51953 -6.42821,0.38537 -12.86422,0.6487 -19.30273,0.79297 -6.43852,0.14427 -12.88064,0.16862 -19.32031,0.0723 -6.43968,-0.0964 -12.8769,-0.31193 -19.3086,-0.64844 -6.43169,-0.33651 -12.85691,-0.79297 -19.27148,-1.36914 -6.41457,-0.57618 -12.81873,-1.27252 -19.20703,-2.08789 -6.38831,-0.81537 -12.76039,-1.75061 -19.11328,-2.80469 -6.3529,-1.05408 -12.6858,-2.22721 -18.99415,-3.51953 -6.30834,-1.29232 -12.593,-2.7043 -18.84765,-4.23438 -6.25465,-1.53007 -12.48006,-3.17796 -18.67188,-4.94531 -6.19181,-1.76735 -12.34891,-3.65405 -18.46875,-5.6582 -6.11983,-2.00416 -12.20152,-4.12671 -18.24023,-6.36719 -6.9667,-2.58478 -13.86201,-5.31423 -20.69141,-8.17578 -6.8294,-2.86155 -13.59325,-5.85527 -20.29883,-8.9668 -6.70557,-3.11153 -13.35204,-6.34106 -19.94726,-9.67578 -6.59523,-3.33472 -13.13837,-6.77358 -19.63672,-10.30469 -6.49835,-3.53111 -12.95224,-7.15476 -19.36719,-10.85547 -6.41495,-3.7007 -12.79169,-7.47876 -19.13672,-11.32226 -12.69005,-7.68704 -25.25488,-15.63306 -37.74609,-23.7305 -12.49121,-8.09744 -24.90843,-16.34711 -37.30859,-24.64063 -12.40017,-8.29351 -24.7823,-16.63102 -37.19922,-24.90624 -12.41693,-8.27523 -24.86867,-16.48673 -37.41016,-24.5293 -12.54148,-8.04258 -25.17341,-15.91616 -37.94726,-23.51172 -6.38693,-3.79778 -12.82122,-7.53074 -19.30469,-11.18359 -6.48347,-3.65286 -13.01547,-7.22476 -19.59766,-10.70118 -6.58219,-3.47641 -13.21339,-6.85654 -19.89648,-10.125 -6.68309,-3.26845 -13.41891,-6.42608 -20.20508,-9.45507 -6.78617,-3.029 -13.6242,-5.92949 -20.51563,-8.6875 -6.89142,-2.75802 -13.83512,-5.3726 -20.83398,-7.82813 -6.99886,-2.45553 -14.05168,-4.75347 -21.16016,-6.875 -7.10848,-2.12153 -14.27386,-4.0682 -21.49414,-5.82422 -7.22027,-1.75601 -14.5024,-3.31295 -21.83007,-4.6582 -7.32768,-1.34525 -14.69908,-2.47869 -22.09766,-3.38477 -7.39858,-0.90608 -14.82483,-1.58492 -22.25781,-2.02343 -7.43299,-0.43852 -14.8738,-0.63559 -22.30469,-0.57813 -7.43089,0.0575 -14.85185,0.36934 -22.24414,0.95117 -7.3923,0.58183 -14.75506,1.43376 -22.07227,2.56836 -7.3172,1.1346 -14.5893,2.55181 -21.79492,4.26758 -7.20562,1.71577 -14.344814,3.72934 -21.402343,6.05469 -6.892403,2.27094 -13.683867,4.8395 -20.353516,7.6914 -6.669649,2.85191 -13.218102,5.98837 -19.625,9.39063 -6.406898,3.40225 -12.673194,7.07021 -18.777343,10.99219 -6.10415,3.92197 -12.045237,8.09673 -17.806641,12.50781 C 8.8880535,329.37035 4.4232421,333.20901 0,337.08984 V 720 h 1280 z"
     transform="scale(0.26458333)" />
  <path
     d="m 338.66666,108.35153 c -0.66744,0.68872 -1.32498,1.38724 -2.0071,2.06137 -1.21177,1.19756 -2.4461,2.37176 -3.70263,3.52226 -1.25651,1.15051 -2.53516,2.27696 -3.8344,3.37913 -1.29921,1.10216 -2.61905,2.17979 -3.95893,3.23236 -1.33985,1.05256 -2.69986,2.08029 -4.07829,3.08198 -1.37842,1.00168 -2.7755,1.97742 -4.19044,2.92695 -1.41497,0.94953 -2.8475,1.87272 -4.29689,2.76883 -1.44941,0.8961 -2.91587,1.76515 -4.39766,2.60655 -1.4818,0.84141 -2.97908,1.65526 -4.4912,2.44068 -1.51215,0.78543 -3.03916,1.54249 -4.57957,2.27066 -1.54043,0.72818 -3.09409,1.42738 -4.66071,2.09703 -1.56663,0.66966 -3.14587,1.30993 -4.73665,1.91978 -1.59078,0.60986 -3.19305,1.1891 -4.80592,1.73788 -1.61287,0.54879 -3.23657,1.06695 -4.86947,1.55339 -1.6329,0.48645 -3.27544,0.94144 -4.92631,1.36426 -1.65089,0.42283 -3.30969,0.81362 -4.97541,1.17202 -1.66571,0.3584 -3.33814,0.68414 -5.01623,0.97824 -1.6781,0.2941 -3.36173,0.55607 -5.04982,0.786 -1.68809,0.22993 -3.38052,0.42788 -5.07618,0.59376 -1.69565,0.16588 -3.39449,0.30008 -5.09529,0.40204 -1.7008,0.10196 -3.40366,0.17164 -5.10718,0.20981 -1.70353,0.0382 -3.40801,0.0446 -5.11183,0.0191 -1.70384,-0.0255 -3.40702,-0.0825 -5.10874,-0.17157 -1.70172,-0.089 -3.40172,-0.20981 -5.09891,-0.36225 -1.69719,-0.15245 -3.39162,-0.33669 -5.08186,-0.55242 -1.69024,-0.21573 -3.37619,-0.46318 -5.05706,-0.74208 -1.68087,-0.27889 -3.35645,-0.58928 -5.02553,-0.9312 -1.66908,-0.34193 -3.3319,-0.71552 -4.98678,-1.12035 -1.65487,-0.40483 -3.30201,-0.84084 -4.94026,-1.30845 -1.63825,-0.46761 -3.26732,-0.9668 -4.88653,-1.49706 -1.6192,-0.53027 -3.22832,-1.09186 -4.82606,-1.68465 -1.84327,-0.68389 -3.66765,-1.40606 -5.4746,-2.16318 -1.80695,-0.75712 -3.59655,-1.54921 -5.37073,-2.37247 -1.77418,-0.82325 -3.53273,-1.67773 -5.27771,-2.56005 -1.74499,-0.88231 -3.4762,-1.79217 -5.19555,-2.72645 -1.71936,-0.93427 -3.42695,-1.89303 -5.12424,-2.87217 -1.69729,-0.97915 -3.38447,-1.97876 -5.06326,-2.99568 -3.35757,-2.03387 -6.68202,-4.13625 -9.98698,-6.2787 -3.30497,-2.14245 -6.59036,-4.32517 -9.87123,-6.5195 -3.28088,-2.19432 -6.55699,-4.40029 -9.8423,-6.58977 -3.28531,-2.18949 -6.57983,-4.36212 -9.8981,-6.490047 -3.31827,-2.127933 -6.66047,-4.211151 -10.04021,-6.220809 -1.68988,-1.00483 -3.39228,-1.992509 -5.1077,-2.958992 -1.71542,-0.966486 -3.44368,-1.911551 -5.18522,-2.831354 -1.74153,-0.9198 -3.49604,-1.814126 -5.264274,-2.678906 -1.768234,-0.864777 -3.55042,-1.700234 -5.345927,-2.501654 C 90.843281,81.544455 89.034053,80.777034 87.210695,80.047311 85.38734,79.317584 83.550153,78.62581 81.698371,77.976118 79.84659,77.326426 77.980531,76.718429 76.099746,76.157107 74.21896,75.595786 72.32312,75.08073 70.412755,74.616116 68.502392,74.151505 66.575661,73.739565 64.636882,73.383634 62.6981,73.027703 60.74775,72.727814 58.79021,72.48808 c -1.957541,-0.239734 -3.922403,-0.419343 -5.889046,-0.535366 -1.966645,-0.116025 -3.935359,-0.168166 -5.901449,-0.152963 -1.96609,0.01521 -3.929552,0.09772 -5.885429,0.251663 -1.955879,0.153943 -3.903943,0.379349 -5.839954,0.679546 -1.93601,0.300196 -3.860086,0.675166 -5.766573,1.12913 -1.906487,0.453964 -3.795399,0.986721 -5.662703,1.60197 -1.823615,0.600853 -3.620523,1.280451 -5.385201,2.035016 -1.764678,0.754568 -3.49729,1.584423 -5.192448,2.484605 -1.695158,0.900178 -3.3531159,1.870659 -4.9681719,2.90835 -1.6150564,1.037688 -3.186969,2.14226 -4.7113404,3.309358 C 2.3516308,87.145904 1.1703161,88.161549 0,89.188352 V 190.5 h 338.66666 z"
     style="fill:url(#linearGradient1138);fill-opacity:1;stroke:url(#linearGradient1128);stroke-width:0.264583;stroke-opacity:1"
     id="rect1044" />
  <path
     style="color:#000000;font-style:normal;font-variant:normal;font-weight:normal;font-stretch:normal;font-size:medium;line-height:normal;font-family:sans-serif;font-variant-ligatures:normal;font-variant-position:normal;font-variant-caps:normal;font-variant-numeric:normal;font-variant-alternates:normal;font-variant-east-asian:normal;font-feature-settings:normal;font-variation-settings:normal;text-indent:0;text-align:start;text-decoration:none;text-decoration-line:none;text-decoration-style:solid;text-decoration-color:#000000;letter-spacing:normal;word-spacing:normal;text-transform:none;writing-mode:lr-tb;direction:ltr;text-orientation:mixed;dominant-baseline:auto;baseline-shift:baseline;text-anchor:start;white-space:normal;shape-padding:0;shape-margin:0;inline-size:0;clip-rule:nonzero;display:inline;overflow:visible;visibility:visible;isolation:auto;mix-blend-mode:normal;color-interpolation:sRGB;color-interpolation-filters:linearRGB;solid-color:#000000;solid-opacity:1;vector-effect:none;fill:#000000;fill-opacity:0.35;fill-rule:nonzero;stroke:none;stroke-width:0.264583px;stroke-linecap:butt;stroke-linejoin:miter;stroke-miterlimit:4;stroke-dasharray:none;stroke-dashoffset:0;stroke-opacity:1;filter:url(#filter938);color-rendering:auto;image-rendering:auto;shape-rendering:auto;text-rendering:auto;enable-background:accumulate;stop-color:#000000"
     d="m 238.3125,108.58398 c -18.49428,-0.54152 -37.29392,2.83804 -55.02734,8.36719 -28.3721,8.84622 -54.76043,22.91736 -81.74024,35.32813 -32.882616,15.12607 -66.861546,27.86865 -101.58202937,38.09375 l 0.07421874,0.2539 C 169.33333,190.5 169.33333,190.5 338.53711,190.52734 l 0.25977,-0.0547 c -3.61676,-17.44203 -11.8844,-33.89534 -23.71876,-47.20899 -11.83435,-13.31365 -27.2058,-23.4531 -44.10351,-29.08984 -11.24596,-3.17594 -22.7177,-5.24984 -32.66211,-5.58983 z"
     id="path936" />
  <path
     id="path71"
     d="m 238.3125,108.58398 c -18.49428,-0.54152 -37.29392,2.83804 -55.02734,8.36719 -28.3721,8.84622 -54.76043,22.91736 -81.74024,35.32813 -32.882616,15.12607 -66.861546,27.86865 -101.58202937,38.09375 l 0.07421874,0.2539 C 169.33333,190.5 169.33333,190.5 338.53711,190.52734 l 0.25977,-0.0547 c -3.61676,-17.44203 -11.8844,-33.89534 -23.71876,-47.20899 -11.83435,-13.31365 -27.2058,-23.4531 -44.10351,-29.08984 -11.24596,-3.17594 -22.7177,-5.24984 -32.66211,-5.58983 z"
     style="color:#000000;font-style:normal;font-variant:normal;font-weight:normal;font-stretch:normal;font-size:medium;line-height:normal;font-family:sans-serif;font-variant-ligatures:normal;font-variant-position:normal;font-variant-caps:normal;font-variant-numeric:normal;font-variant-alternates:normal;font-variant-east-asian:normal;font-feature-settings:normal;font-variation-settings:normal;text-indent:0;text-align:start;text-decoration:none;text-decoration-line:none;text-decoration-style:solid;text-decoration-color:#000000;letter-spacing:normal;word-spacing:normal;text-transform:none;writing-mode:lr-tb;direction:ltr;text-orientation:mixed;dominant-baseline:auto;baseline-shift:baseline;text-anchor:start;white-space:normal;shape-padding:0;shape-margin:0;inline-size:0;clip-rule:nonzero;display:inline;overflow:visible;visibility:visible;isolation:auto;mix-blend-mode:normal;color-interpolation:sRGB;color-interpolation-filters:linearRGB;solid-color:#000000;solid-opacity:1;vector-effect:none;fill:url(#linearGradient959);fill-opacity:1;fill-rule:nonzero;stroke:none;stroke-width:0.264583px;stroke-linecap:butt;stroke-linejoin:miter;stroke-miterlimit:4;stroke-dasharray:none;stroke-dashoffset:0;stroke-opacity:1;color-rendering:auto;image-rendering:auto;shape-rendering:auto;text-rendering:auto;enable-background:accumulate;stop-color:#000000" />
</svg>
