<?xml version="1.0" encoding="UTF-8" standalone="no"?>
<svg
   xmlns:dc="http://purl.org/dc/elements/1.1/"
   xmlns:cc="http://creativecommons.org/ns#"
   xmlns:rdf="http://www.w3.org/1999/02/22-rdf-syntax-ns#"
   xmlns:svg="http://www.w3.org/2000/svg"
   xmlns="http://www.w3.org/2000/svg"
   width="32"
   height="32"
   viewBox="0 0 32 32"
   id="svg2"
   version="1.1">
  <metadata
     id="metadata14">
    <rdf:RDF>
      <cc:Work
         rdf:about="">
        <dc:format>image/svg+xml</dc:format>
        <dc:type
           rdf:resource="http://purl.org/dc/dcmitype/StillImage" />
        <dc:title></dc:title>
      </cc:Work>
    </rdf:RDF>
  </metadata>
  <defs
     id="defs12" />
  <path
     style="fill:#d4e0e6;stroke-width:0.0319414;fill-opacity:1"
     d="m 11.591637,4.6001031 c -0.423388,0.00166 -3.9259456,0.1011171 -7.6209631,2.8467209 0,0 -3.94134784,7.089005 -3.94134784,15.820192 0,0 2.29908344,3.941311 8.34795934,4.132904 0,0 1.0127069,-1.204307 1.8338206,-2.244382 C 6.7350504,24.115457 5.4212745,21.95327 5.4212745,21.95327 c 0,0 0.2737628,0.191559 0.7664334,0.465268 0.027349,0 0.054665,0.02732 0.1093974,0.05469 0.08211,0.05475 0.1642486,0.08211 0.2463601,0.136859 0.6842644,0.383186 1.3685059,0.6843 1.9980278,0.930636 1.1221871,0.465297 2.4633868,0.875813 4.0235028,1.176892 2.052786,0.383185 4.461345,0.520019 7.088913,0.02735 1.286415,-0.246334 2.600277,-0.602109 3.968803,-1.176891 0.957965,-0.355818 2.025377,-0.875802 3.147567,-1.614809 0,0 -1.368502,2.217013 -4.954039,3.229724 0.82112,1.012704 1.806472,2.189575 1.806472,2.189575 6.048877,-0.191584 8.347962,-4.132914 8.347962,-4.105545 0,-8.731185 -3.941349,-15.8201907 -3.941349,-15.8201907 -3.913979,-2.928646 -7.663792,-2.8465052 -7.663792,-2.8465052 l -0.383107,0.4379114 c 4.652985,1.3958957 6.815202,3.4487354 6.815202,3.4487354 -2.846531,-1.53275 -5.63826,-2.2991748 -8.238454,-2.6002527 -1.970679,-0.2189619 -3.859316,-0.1641572 -5.528912,0.054805 -0.164222,0 -0.301046,0.027352 -0.465267,0.054702 C 11.607027,6.1057037 9.2805564,6.4341227 6.3519153,7.7205383 5.3392052,8.1584658 4.7369991,8.486971 4.7369991,8.486971 c 0,0 2.2443827,-2.162346 7.1710669,-3.5582374 L 11.634357,4.6003242 c 0,0 -0.01448,-3.278e-4 -0.04271,-2.241e-4 z M 10.895383,14.700045 c 1.560116,0 2.819171,1.341113 2.791804,3.010711 0,1.669601 -1.231688,3.010816 -2.791804,3.010816 -1.5327477,0 -2.7918049,-1.341215 -2.7918049,-3.010816 0,-1.669598 1.2316844,-3.010711 2.7918049,-3.010711 z m 9.990224,0 c 1.532744,0 2.791803,1.341113 2.791803,3.010711 0,1.669601 -1.231684,3.010816 -2.791803,3.010816 -1.532747,0 -2.791805,-1.341215 -2.791805,-3.010816 0,-1.669598 1.231684,-3.010711 2.791805,-3.010711 z"
     id="path8" />
</svg>
