<?xml version="1.0" encoding="UTF-8" standalone="no"?>
<svg
   xmlns:dc="http://purl.org/dc/elements/1.1/"
   xmlns:cc="http://creativecommons.org/ns#"
   xmlns:rdf="http://www.w3.org/1999/02/22-rdf-syntax-ns#"
   xmlns:svg="http://www.w3.org/2000/svg"
   xmlns="http://www.w3.org/2000/svg"
   version="1.1"
   id="Layer_1"
   x="0px"
   y="0px"
   width="32"
   height="32"
   viewBox="0 0 32 32"
   enable-background="new 0 0 1000 223.2444"
   xml:space="preserve"><metadata
   id="metadata31"><rdf:RDF><cc:Work
       rdf:about=""><dc:format>image/svg+xml</dc:format><dc:type
         rdf:resource="http://purl.org/dc/dcmitype/StillImage" /><dc:title></dc:title></cc:Work></rdf:RDF></metadata><defs
   id="defs29" />
<path
   id="path2"
   style="stroke-width:0.101122;fill:#d4e0e6;fill-opacity:1"
   d="m 16,4.7114615 c 0,0 -10.0852469,0.00145 -12.6002537,0.6753381 C 2.0121971,5.7576925 0.9186351,6.851259 0.54774082,8.2388044 -0.12615226,10.75381 -0.12500004,16.000001 -0.12500004,16.000001 c 0,0 -0.001152,5.24619 0.67274086,7.761196 C 0.9186351,25.148742 2.012197,26.242309 3.3997463,26.613202 5.9147531,27.287096 16,27.288539 16,27.288539 c 0,0 10.085244,-0.0015 12.600253,-0.675337 1.387548,-0.370893 2.478511,-1.464461 2.849408,-2.852005 0.673892,-2.515006 0.675339,-7.761196 0.675339,-7.761196 0,0 -0.0015,-5.246191 -0.675339,-7.7611966 C 31.078764,6.851259 29.987801,5.7576923 28.600253,5.3867996 26.085244,4.7129051 16,4.7114614 16,4.7114615 Z m -3.22604,6.4520775 8.379391,4.836462 -8.379391,4.836461 z" />

</svg>
