<?xml version="1.0" encoding="UTF-8" standalone="no"?>
<svg
   xmlns:dc="http://purl.org/dc/elements/1.1/"
   xmlns:cc="http://creativecommons.org/ns#"
   xmlns:rdf="http://www.w3.org/1999/02/22-rdf-syntax-ns#"
   xmlns:svg="http://www.w3.org/2000/svg"
   xmlns="http://www.w3.org/2000/svg"
   id="svg8"
   version="1.1"
   viewBox="0 0 98.424998 37.570835"
   height="142"
   width="372">
  <defs
     id="defs2" />
  <metadata
     id="metadata5">
    <rdf:RDF>
      <cc:Work
         rdf:about="">
        <dc:format>image/svg+xml</dc:format>
        <dc:type
           rdf:resource="http://purl.org/dc/dcmitype/StillImage" />
        <dc:title></dc:title>
      </cc:Work>
    </rdf:RDF>
  </metadata>
  <g
     transform="translate(-42.069994,-151.74643)"
     id="layer1">
    <g
       style="fill:#d4e0e6;fill-opacity:1"
       id="g885">
      <path
         id="path836"
         style="font-style:normal;font-variant:normal;font-weight:normal;font-stretch:normal;font-size:19.75555611px;line-height:1.25;font-family:Montserrat;-inkscape-font-specification:Montserrat;text-align:center;letter-spacing:0px;word-spacing:0px;text-anchor:middle;fill:#d4e0e6;fill-opacity:1;stroke:none;stroke-width:0.26458332"
         d="m 47.206438,152.92753 h -5.136444 v -0.37536 h 10.668 v 0.37536 h -5.136445 v 13.45353 h -0.395111 z" />
      <path
         id="path838"
         style="font-style:normal;font-variant:normal;font-weight:normal;font-stretch:normal;font-size:19.75555611px;line-height:1.25;font-family:Montserrat;-inkscape-font-specification:Montserrat;text-align:center;letter-spacing:0px;word-spacing:0px;text-anchor:middle;fill:#d4e0e6;fill-opacity:1;stroke:none;stroke-width:0.26458332"
         d="m 59.770941,156.10817 c 1.277526,0 2.278474,0.36877 3.002844,1.10631 0.724371,0.72437 1.086556,1.77142 1.086556,3.14114 v 0.73377 H 63.46523 v -0.73377 c 0,-1.25119 -0.322674,-2.20604 -0.968022,-2.86456 -0.632178,-0.67169 -1.534349,-1.00753 -2.706512,-1.00753 -1.330207,0 -2.383837,0.4017 -3.160889,1.20509 -0.763881,0.79022 -1.145822,1.83726 -1.145822,3.14113 v 5.55131 h -0.395111 v -14.65862 h 0.395111 v 7.17127 c 0.316089,-0.86925 0.842904,-1.54752 1.580445,-2.03483 0.737541,-0.50047 1.639711,-0.75071 2.706511,-0.75071 z" />
      <path
         transform="scale(0.26458333)"
         d="m 271.37695,590.01562 c -3.38489,0 -6.44581,0.84662 -9.18359,2.53907 -2.688,1.64266 -4.80259,3.95667 -6.3457,6.94336 -1.54312,2.93689 -2.31446,6.27254 -2.31446,10.00586 0,3.73334 0.82023,7.09342 2.46289,10.08007 1.69245,2.98669 3.98203,5.32516 6.86914,7.01758 1.1394,0.6373 2.33807,1.14706 3.58985,1.53711 0.15328,-0.4251 0.22015,-0.92516 0.3142,-1.41782 -1.09622,-0.35902 -2.14782,-0.82029 -3.15625,-1.38867 -2.688,-1.5431 -4.80454,-3.68408 -6.34766,-6.42187 -1.54311,-2.78756 -2.31445,-5.92181 -2.31445,-9.40625 h 34.34571 v -0.375 c 0,-3.68356 -0.79581,-6.96837 -2.38868,-9.85547 -1.54313,-2.88711 -3.68411,-5.15227 -6.42187,-6.79492 -2.73779,-1.64269 -5.77429,-2.4629 -9.10938,-2.4629 z m 0,1.41797 c 2.98665,0 5.69954,0.72247 8.13867,2.16602 2.43911,1.44355 4.40705,3.434 5.9004,5.97266 1.49324,2.53868 2.31347,5.37571 2.46289,8.51171 h -32.92774 c 0.14934,-3.136 0.94512,-5.97303 2.38867,-8.51171 1.49334,-2.53866 3.45933,-4.52911 5.89844,-5.97266 2.43911,-1.44355 5.15201,-2.16602 8.13867,-2.16602 z"
         style="font-style:normal;font-variant:normal;font-weight:normal;font-stretch:normal;font-size:19.75555611px;line-height:1.25;font-family:Montserrat;-inkscape-font-specification:Montserrat;text-align:center;letter-spacing:0px;word-spacing:0px;text-anchor:middle;fill:#d4e0e6;fill-opacity:1;stroke:none;stroke-width:0.99999994"
         id="path840" />
    </g>
    <g
       style="fill:#d4e0e6;fill-opacity:1"
       transform="translate(30.285167,-16.3576)"
       id="g901">
      <path
         id="path842"
         style="font-style:normal;font-variant:normal;font-weight:normal;font-stretch:normal;font-size:19.75555611px;line-height:1.25;font-family:Montserrat;-inkscape-font-specification:Montserrat;text-align:center;letter-spacing:0px;word-spacing:0px;text-anchor:middle;fill:#d4e0e6;fill-opacity:1;stroke:none;stroke-width:0.26458332"
         d="m 28.656026,177.62197 v 6.63787 h 7.625645 v 0.37535 h -7.625645 v 6.44032 h -0.395111 v -13.82889 h 8.909756 v 0.37535 z" />
      <path
         id="path844"
         style="font-style:normal;font-variant:normal;font-weight:normal;font-stretch:normal;font-size:19.75555611px;line-height:1.25;font-family:Montserrat;-inkscape-font-specification:Montserrat;text-align:center;letter-spacing:0px;word-spacing:0px;text-anchor:middle;fill:#d4e0e6;fill-opacity:1;stroke:none;stroke-width:0.26458332"
         d="m 40.529105,183.50913 q 0.434622,-1.30387 1.461911,-1.99531 1.027289,-0.7112 2.548467,-0.7112 v 0.39511 H 44.42095 q -1.837267,0 -2.864556,1.18533 -1.027289,1.16558 -1.027289,3.2004 v 5.49205 h -0.395111 v -10.21363 h 0.395111 z" />
      <path
         id="path846"
         style="font-style:normal;font-variant:normal;font-weight:normal;font-stretch:normal;font-size:19.75555611px;line-height:1.25;font-family:Montserrat;-inkscape-font-specification:Montserrat;text-align:center;letter-spacing:0px;word-spacing:0px;text-anchor:middle;fill:#d4e0e6;fill-opacity:1;stroke:none;stroke-width:0.26458332"
         d="m 51.157557,191.13477 q -1.402645,0 -2.548467,-0.65193 -1.126067,-0.67169 -1.778,-1.85702 -0.632178,-1.18534 -0.632178,-2.667 0,-1.48167 0.632178,-2.64725 0.651933,-1.18533 1.778,-1.83726 1.145822,-0.67169 2.548467,-0.67169 1.402644,0 2.528711,0.67169 1.145822,0.65193 1.778,1.83726 0.651933,1.16558 0.651933,2.64725 0,1.48166 -0.651933,2.667 -0.632178,1.18533 -1.778,1.85702 -1.126067,0.65193 -2.528711,0.65193 z m 0,-0.37535 q 1.284111,0 2.331155,-0.61243 1.047045,-0.61242 1.639711,-1.69897 0.592667,-1.10631 0.592667,-2.4892 0,-1.38289 -0.592667,-2.46945 -0.592666,-1.10631 -1.639711,-1.69898 -1.047044,-0.61242 -2.331155,-0.61242 -1.284111,0 -2.331156,0.61242 -1.047044,0.59267 -1.639711,1.69898 -0.592667,1.08656 -0.592667,2.46945 0,1.38289 0.592667,2.4892 0.592667,1.08655 1.639711,1.69897 1.047045,0.61243 2.331156,0.61243 z" />
      <path
         id="path848"
         style="font-style:normal;font-variant:normal;font-weight:normal;font-stretch:normal;font-size:19.75555611px;line-height:1.25;font-family:Montserrat;-inkscape-font-specification:Montserrat;text-align:center;letter-spacing:0px;word-spacing:0px;text-anchor:middle;fill:#d4e0e6;fill-opacity:1;stroke:none;stroke-width:0.26458332"
         d="m 68.285598,180.86188 v 9.30487 q 0,2.44969 -1.165578,3.61527 -1.165578,1.18533 -3.556,1.18533 -1.402645,0 -2.607733,-0.45438 -1.185334,-0.45438 -1.916289,-1.2446 l 0.276577,-0.27658 q 0.790223,0.77047 1.876778,1.18534 1.086556,0.41486 2.370667,0.41486 2.212622,0 3.259667,-1.0668 1.0668,-1.04704 1.0668,-3.29917 v -2.56823 q -0.5334,1.40265 -1.778,2.25214 -1.224845,0.82973 -2.8448,0.82973 -1.4224,0 -2.568223,-0.63218 -1.145822,-0.65193 -1.797755,-1.778 -0.651934,-1.14582 -0.651934,-2.56822 0,-1.4224 0.651934,-2.54847 0.651933,-1.14582 1.797755,-1.778 1.145823,-0.63217 2.568223,-0.63217 1.619955,0 2.8448,0.82973 1.2446,0.82973 1.778,2.21262 v -2.98309 z m -5.017911,9.50243 q 1.323622,0 2.370666,-0.57292 1.0668,-0.59266 1.659467,-1.63971 0.592667,-1.0668 0.592667,-2.39042 0,-1.32362 -0.592667,-2.37067 -0.592667,-1.04704 -1.659467,-1.61995 -1.047044,-0.59267 -2.370666,-0.59267 -1.323623,0 -2.390423,0.59267 -1.047044,0.57291 -1.639711,1.61995 -0.592666,1.04705 -0.592666,2.37067 0,1.32362 0.592666,2.39042 0.592667,1.04705 1.639711,1.63971 1.0668,0.57292 2.390423,0.57292 z" />
      <path
         id="path850"
         style="font-style:normal;font-variant:normal;font-weight:normal;font-stretch:normal;font-size:19.75555611px;line-height:1.25;font-family:Montserrat;-inkscape-font-specification:Montserrat;text-align:center;letter-spacing:0px;word-spacing:0px;text-anchor:middle;fill:#d4e0e6;fill-opacity:1;stroke:none;stroke-width:0.26458332"
         d="m 81.660064,180.86188 v 9.30487 q 0,2.44969 -1.16558,3.61527 -1.16557,1.18533 -3.556,1.18533 -1.40264,0 -2.60773,-0.45438 -1.18533,-0.45438 -1.91629,-1.2446 l 0.27658,-0.27658 q 0.79022,0.77047 1.87678,1.18534 1.08655,0.41486 2.37066,0.41486 2.21263,0 3.25967,-1.0668 1.0668,-1.04704 1.0668,-3.29917 v -2.56823 q -0.5334,1.40265 -1.778,2.25214 -1.22484,0.82973 -2.8448,0.82973 -1.4224,0 -2.56822,-0.63218 -1.14582,-0.65193 -1.79776,-1.778 -0.651925,-1.14582 -0.651925,-2.56822 0,-1.4224 0.651925,-2.54847 0.65194,-1.14582 1.79776,-1.778 1.14582,-0.63217 2.56822,-0.63217 1.61996,0 2.8448,0.82973 1.2446,0.82973 1.778,2.21262 v -2.98309 z m -5.01791,9.50243 q 1.32362,0 2.37067,-0.57292 1.0668,-0.59266 1.65946,-1.63971 0.59267,-1.0668 0.59267,-2.39042 0,-1.32362 -0.59267,-2.37067 -0.59266,-1.04704 -1.65946,-1.61995 -1.04705,-0.59267 -2.37067,-0.59267 -1.32362,0 -2.39042,0.59267 -1.04705,0.57291 -1.63971,1.61995 -0.59266,1.04705 -0.59266,2.37067 0,1.32362 0.59266,2.39042 0.59266,1.04705 1.63971,1.63971 1.0668,0.57292 2.39042,0.57292 z" />
      <path
         id="path852"
         style="font-style:normal;font-variant:normal;font-weight:normal;font-stretch:normal;font-size:19.75555611px;line-height:1.25;font-family:Montserrat;-inkscape-font-specification:Montserrat;text-align:center;letter-spacing:0px;word-spacing:0px;text-anchor:middle;fill:#d4e0e6;fill-opacity:1;stroke:none;stroke-width:0.26458332"
         d="m 93.849214,180.86188 -5.43278,11.85334 q -0.55316,1.22484 -1.2446,1.73849 -0.69145,0.51364 -1.63971,0.51364 -1.38289,0 -2.21262,-0.90876 l 0.29633,-0.31608 q 0.41487,0.45437 0.86924,0.65193 0.45438,0.19755 1.0668,0.19755 0.79023,0 1.36314,-0.45437 0.59266,-0.43463 1.10631,-1.54094 l 0.7112,-1.56069 -4.68207,-10.17411 h 0.45438 l 4.445,9.75925 4.445,-9.75925 z" />
    </g>
    <g
       style="fill:#d4e0e6;fill-opacity:1"
       transform="translate(50.712373,-26.51196)"
       id="g893">
      <path
         id="path854"
         style="font-style:normal;font-variant:normal;font-weight:normal;font-stretch:normal;font-size:19.75555611px;line-height:1.25;font-family:Montserrat;-inkscape-font-specification:Montserrat;text-align:center;letter-spacing:0px;word-spacing:0px;text-anchor:middle;fill:#d4e0e6;fill-opacity:1;stroke:none;stroke-width:0.26458332"
         d="m 34.720947,215.82922 q -1.501422,0 -2.825044,-0.5334 -1.323623,-0.55316 -2.034823,-1.4224 l 0.276578,-0.25682 q 0.671689,0.79022 1.916289,1.32362 1.2446,0.51364 2.647245,0.51364 2.153355,0 3.239911,-0.84949 1.106311,-0.86924 1.106311,-2.23237 0,-1.0668 -0.572911,-1.69898 -0.572911,-0.63218 -1.4224,-0.94827 -0.829734,-0.31609 -2.252134,-0.65193 -1.521178,-0.37536 -2.410178,-0.7112 -0.889,-0.3556 -1.521177,-1.0668 -0.612423,-0.73096 -0.612423,-1.93605 0,-0.94826 0.493889,-1.73849 0.493889,-0.79022 1.540934,-1.26435 1.047044,-0.47413 2.587978,-0.47413 1.106311,0 2.173111,0.3556 1.0668,0.33584 1.837266,0.90875 l -0.217311,0.31609 q -0.809977,-0.59267 -1.817511,-0.889 -0.987778,-0.31609 -1.9558,-0.31609 -2.074333,0 -3.160889,0.889 -1.086555,0.86925 -1.086555,2.23238 0,1.0668 0.572911,1.71873 0.572911,0.63218 1.4224,0.94827 0.849489,0.31609 2.291644,0.67169 1.501422,0.37535 2.390423,0.73095 0.889,0.33585 1.501422,1.04705 0.612422,0.69144 0.612422,1.87678 0,0.94826 -0.513644,1.73848 -0.513645,0.79023 -1.580445,1.26436 -1.047044,0.45438 -2.627489,0.45438 z" />
      <path
         id="path856"
         style="font-style:normal;font-variant:normal;font-weight:normal;font-stretch:normal;font-size:19.75555611px;line-height:1.25;font-family:Montserrat;-inkscape-font-specification:Montserrat;text-align:center;letter-spacing:0px;word-spacing:0px;text-anchor:middle;fill:#d4e0e6;fill-opacity:1;stroke:none;stroke-width:0.26458332"
         d="m 47.5423,205.49706 c 1.277526,0 2.278474,0.36877 3.002844,1.10631 0.724371,0.72437 1.086556,1.77142 1.086556,3.14114 v 6.02544 h -0.395111 v -6.02544 c 0,-1.25119 -0.322674,-2.20604 -0.968022,-2.86456 -0.632178,-0.67169 -1.534349,-1.00753 -2.706512,-1.00753 -1.330207,0 -2.383837,0.4017 -3.160889,1.20509 -0.763881,0.79022 -1.145822,1.83726 -1.145822,3.14113 v 5.55131 H 42.860233 V 204.8155 h 0.395111 v 3.4671 c 0.316089,-0.86925 0.842904,-1.54752 1.580445,-2.03483 0.737541,-0.50047 1.639711,-0.75071 2.706511,-0.75071 z" />
      <path
         id="path858"
         style="font-style:normal;font-variant:normal;font-weight:normal;font-stretch:normal;font-size:19.75555611px;line-height:1.25;font-family:Montserrat;-inkscape-font-specification:Montserrat;text-align:center;letter-spacing:0px;word-spacing:0px;text-anchor:middle;fill:#d4e0e6;fill-opacity:1;stroke:none;stroke-width:0.26458332"
         d="m 56.45204,208.20357 q 0.434623,-1.30386 1.461912,-1.99531 1.027288,-0.7112 2.548466,-0.7112 v 0.39511 h -0.118533 q -1.837267,0 -2.864556,1.18534 -1.027289,1.16557 -1.027289,3.2004 v 5.49204 h -0.395111 v -10.21362 h 0.395111 z" />
      <path
         id="path860"
         style="font-style:normal;font-variant:normal;font-weight:normal;font-stretch:normal;font-size:19.75555611px;line-height:1.25;font-family:Montserrat;-inkscape-font-specification:Montserrat;text-align:center;letter-spacing:0px;word-spacing:0px;text-anchor:middle;fill:#d4e0e6;fill-opacity:1;stroke:none;stroke-width:0.26458332"
         d="m 63.425738,205.55633 h 0.395111 v 10.21362 h -0.395111 z" />
      <path
         id="path862"
         style="font-style:normal;font-variant:normal;font-weight:normal;font-stretch:normal;font-size:19.75555611px;line-height:1.25;font-family:Montserrat;-inkscape-font-specification:Montserrat;text-align:center;letter-spacing:0px;word-spacing:0px;text-anchor:middle;fill:#d4e0e6;fill-opacity:1;stroke:none;stroke-width:0.26458332"
         d="m 73.046654,205.49706 q 1.91629,0 3.00284,1.10631 1.08656,1.08656 1.08656,3.14114 v 6.02544 h -0.39511 v -6.02544 q 0,-1.87678 -0.96803,-2.86456 -0.94826,-1.00753 -2.70651,-1.00753 -1.995304,0 -3.160882,1.20509 -1.145822,1.18533 -1.145822,3.14113 v 5.55131 H 68.364588 V 205.55633 H 68.7597 v 2.72627 q 0.474133,-1.30387 1.580444,-2.03483 1.106311,-0.75071 2.70651,-0.75071 z" />
      <path
         id="path864"
         style="font-style:normal;font-variant:normal;font-weight:normal;font-stretch:normal;font-size:19.75555611px;line-height:1.25;font-family:Montserrat;-inkscape-font-specification:Montserrat;text-align:center;letter-spacing:0px;word-spacing:0px;text-anchor:middle;fill:#d4e0e6;fill-opacity:1;stroke:none;stroke-width:0.26458332"
         d="m 89.819104,210.65326 h -9.08756 q 0,1.38289 0.61243,2.4892 0.61242,1.08656 1.67922,1.69898 1.08655,0.61242 2.42993,0.61242 1.04705,0 1.9558,-0.39511 0.92851,-0.41487 1.52118,-1.18533 l 0.27658,0.27658 q -0.67169,0.80997 -1.65947,1.2446 -0.98778,0.43462 -2.09409,0.43462 -1.46191,0 -2.62749,-0.65194 -1.14582,-0.67168 -1.81751,-1.85702 -0.65193,-1.18533 -0.65193,-2.667 0,-1.48166 0.61242,-2.64724 0.61242,-1.18534 1.67922,-1.83727 1.08656,-0.67169 2.42994,-0.67169 1.32362,0 2.41017,0.65194 1.08656,0.65193 1.69898,1.79775 0.63218,1.14582 0.63218,2.60773 z m -4.74133,-4.78084 q -1.18534,0 -2.15336,0.57291 -0.96802,0.57291 -1.56069,1.58044 -0.57291,1.00754 -0.63218,2.25214 h 8.7122 q -0.0593,-1.2446 -0.65193,-2.25214 -0.59267,-1.00753 -1.56069,-1.58044 -0.96802,-0.57291 -2.15335,-0.57291 z" />
    </g>
  </g>
</svg>
